<?xml version="1.0" encoding="UTF-8" standalone="no"?>
<!DOCTYPE svg PUBLIC "-//W3C//DTD SVG 1.1//EN"
 "http://www.w3.org/Graphics/SVG/1.1/DTD/svg11.dtd">
<!-- Generated by graphviz version 2.43.0 (0)
 -->
<!-- Title: video_player.h Pages: 1 -->
<svg width="1159pt" height="151pt"
 viewBox="0.00 0.00 1159.00 151.00" xmlns="http://www.w3.org/2000/svg" xmlns:xlink="http://www.w3.org/1999/xlink">
<g id="graph0" class="graph" transform="scale(1 1) rotate(0) translate(4 147)">
<title>video_player.h</title>
<polygon fill="white" stroke="transparent" points="-4,4 -4,-147 1155,-147 1155,4 -4,4"/>
<!-- Node1 -->
<g id="node1" class="node">
<title>Node1</title>
<g id="a_node1"><a xlink:title=" ">
<polygon fill="#bfbfbf" stroke="black" points="614.5,-123.5 614.5,-142.5 702.5,-142.5 702.5,-123.5 614.5,-123.5"/>
<text text-anchor="middle" x="658.5" y="-130.5" font-family="Helvetica,sans-Serif" font-size="10.00">video_player.h</text>
</a>
</g>
</g>
<!-- Node2 -->
<g id="node2" class="node">
<title>Node2</title>
<g id="a_node2"><a xlink:href="playercontrols_8h.html" target="_top" xlink:title=" ">
<polygon fill="white" stroke="black" points="71,-62 71,-81 166,-81 166,-62 71,-62"/>
<text text-anchor="middle" x="118.5" y="-69" font-family="Helvetica,sans-Serif" font-size="10.00">playercontrols.h</text>
</a>
</g>
</g>
<!-- Node1&#45;&gt;Node2 -->
<g id="edge1" class="edge">
<title>Node1&#45;&gt;Node2</title>
<path fill="none" stroke="midnightblue" d="M614.24,-130.19C528.86,-126.19 335.67,-114.66 175.5,-87 169.97,-86.04 164.18,-84.83 158.5,-83.51"/>
<polygon fill="midnightblue" stroke="midnightblue" points="159.03,-80.04 148.48,-81.06 157.37,-86.84 159.03,-80.04"/>
</g>
<!-- Node3 -->
<g id="node3" class="node">
<title>Node3</title>
<g id="a_node3"><a xlink:title=" ">
<polygon fill="white" stroke="#bfbfbf" points="0,-0.5 0,-19.5 85,-19.5 85,-0.5 0,-0.5"/>
<text text-anchor="middle" x="42.5" y="-7.5" font-family="Helvetica,sans-Serif" font-size="10.00">QMediaPlayer</text>
</a>
</g>
</g>
<!-- Node1&#45;&gt;Node3 -->
<g id="edge8" class="edge">
<title>Node1&#45;&gt;Node3</title>
<path fill="none" stroke="midnightblue" d="M614.46,-131.6C483.6,-130.03 103.52,-122.43 61.5,-87 45.12,-73.19 41.71,-47.61 41.5,-29.96"/>
<polygon fill="midnightblue" stroke="midnightblue" points="45.01,-29.79 41.73,-19.72 38.01,-29.64 45.01,-29.79"/>
</g>
<!-- Node5 -->
<g id="node5" class="node">
<title>Node5</title>
<g id="a_node5"><a xlink:title=" ">
<polygon fill="white" stroke="#bfbfbf" points="184,-56.5 184,-86.5 307,-86.5 307,-56.5 184,-56.5"/>
<text text-anchor="start" x="192" y="-74.5" font-family="Helvetica,sans-Serif" font-size="10.00">QtMultimediaWidgets</text>
<text text-anchor="middle" x="245.5" y="-63.5" font-family="Helvetica,sans-Serif" font-size="10.00">/QVideoWidget</text>
</a>
</g>
</g>
<!-- Node1&#45;&gt;Node5 -->
<g id="edge4" class="edge">
<title>Node1&#45;&gt;Node5</title>
<path fill="none" stroke="midnightblue" d="M614.35,-127.2C550.9,-120.08 430.05,-105.7 316.9,-86.99"/>
<polygon fill="midnightblue" stroke="midnightblue" points="317.46,-83.53 307.02,-85.34 316.31,-90.44 317.46,-83.53"/>
</g>
<!-- Node6 -->
<g id="node6" class="node">
<title>Node6</title>
<g id="a_node6"><a xlink:title=" ">
<polygon fill="white" stroke="#bfbfbf" points="325,-62 325,-81 438,-81 438,-62 325,-62"/>
<text text-anchor="middle" x="381.5" y="-69" font-family="Helvetica,sans-Serif" font-size="10.00">QtWidgets/QWidget</text>
</a>
</g>
</g>
<!-- Node1&#45;&gt;Node6 -->
<g id="edge5" class="edge">
<title>Node1&#45;&gt;Node6</title>
<path fill="none" stroke="midnightblue" d="M618.03,-123.45C575.55,-114.45 506.8,-99.84 447.5,-87 441.84,-85.78 435.92,-84.48 430.03,-83.2"/>
<polygon fill="midnightblue" stroke="midnightblue" points="430.75,-79.77 420.23,-81.05 429.25,-86.61 430.75,-79.77"/>
</g>
<!-- Node7 -->
<g id="node7" class="node">
<title>Node7</title>
<g id="a_node7"><a xlink:title=" ">
<polygon fill="white" stroke="#bfbfbf" points="456.5,-62 456.5,-81 506.5,-81 506.5,-62 456.5,-62"/>
<text text-anchor="middle" x="481.5" y="-69" font-family="Helvetica,sans-Serif" font-size="10.00">QLabel</text>
</a>
</g>
</g>
<!-- Node1&#45;&gt;Node7 -->
<g id="edge6" class="edge">
<title>Node1&#45;&gt;Node7</title>
<path fill="none" stroke="midnightblue" d="M628.88,-123.42C599.98,-114.86 554.89,-101 516.5,-87 514.65,-86.32 512.75,-85.61 510.84,-84.87"/>
<polygon fill="midnightblue" stroke="midnightblue" points="511.96,-81.55 501.37,-81.08 509.36,-88.05 511.96,-81.55"/>
</g>
<!-- Node8 -->
<g id="node8" class="node">
<title>Node8</title>
<g id="a_node8"><a xlink:title=" ">
<polygon fill="white" stroke="#bfbfbf" points="525,-62 525,-81 612,-81 612,-62 525,-62"/>
<text text-anchor="middle" x="568.5" y="-69" font-family="Helvetica,sans-Serif" font-size="10.00">QMainWindow</text>
</a>
</g>
</g>
<!-- Node1&#45;&gt;Node8 -->
<g id="edge7" class="edge">
<title>Node1&#45;&gt;Node8</title>
<path fill="none" stroke="midnightblue" d="M645.61,-123.48C631.04,-113.84 607.1,-98.02 589.75,-86.55"/>
<polygon fill="midnightblue" stroke="midnightblue" points="591.64,-83.6 581.37,-81.01 587.78,-89.44 591.64,-83.6"/>
</g>
<!-- Node9 -->
<g id="node9" class="node">
<title>Node9</title>
<g id="a_node9"><a xlink:title=" ">
<polygon fill="white" stroke="#bfbfbf" points="630.5,-62 630.5,-81 686.5,-81 686.5,-62 630.5,-62"/>
<text text-anchor="middle" x="658.5" y="-69" font-family="Helvetica,sans-Serif" font-size="10.00">QObject</text>
</a>
</g>
</g>
<!-- Node1&#45;&gt;Node9 -->
<g id="edge9" class="edge">
<title>Node1&#45;&gt;Node9</title>
<path fill="none" stroke="midnightblue" d="M658.5,-123.48C658.5,-115.08 658.5,-101.98 658.5,-91.16"/>
<polygon fill="midnightblue" stroke="midnightblue" points="662,-91.01 658.5,-81.01 655,-91.01 662,-91.01"/>
</g>
<!-- Node10 -->
<g id="node10" class="node">
<title>Node10</title>
<g id="a_node10"><a xlink:title=" ">
<polygon fill="white" stroke="#bfbfbf" points="704.5,-62 704.5,-81 784.5,-81 784.5,-62 704.5,-62"/>
<text text-anchor="middle" x="744.5" y="-69" font-family="Helvetica,sans-Serif" font-size="10.00">QPushButton</text>
</a>
</g>
</g>
<!-- Node1&#45;&gt;Node10 -->
<g id="edge10" class="edge">
<title>Node1&#45;&gt;Node10</title>
<path fill="none" stroke="midnightblue" d="M670.82,-123.48C684.62,-113.93 707.2,-98.31 723.73,-86.87"/>
<polygon fill="midnightblue" stroke="midnightblue" points="725.97,-89.58 732.2,-81.01 721.99,-83.82 725.97,-89.58"/>
</g>
<!-- Node11 -->
<g id="node11" class="node">
<title>Node11</title>
<g id="a_node11"><a xlink:title=" ">
<polygon fill="white" stroke="#bfbfbf" points="802.5,-62 802.5,-81 854.5,-81 854.5,-62 802.5,-62"/>
<text text-anchor="middle" x="828.5" y="-69" font-family="Helvetica,sans-Serif" font-size="10.00">QSlider</text>
</a>
</g>
</g>
<!-- Node1&#45;&gt;Node11 -->
<g id="edge11" class="edge">
<title>Node1&#45;&gt;Node11</title>
<path fill="none" stroke="midnightblue" d="M686.11,-123.43C713.53,-114.77 756.7,-100.74 793.5,-87 795.35,-86.31 797.24,-85.58 799.15,-84.84"/>
<polygon fill="midnightblue" stroke="midnightblue" points="800.64,-88.01 808.61,-81.03 798.02,-81.52 800.64,-88.01"/>
</g>
<!-- Node12 -->
<g id="node12" class="node">
<title>Node12</title>
<g id="a_node12"><a xlink:title=" ">
<polygon fill="white" stroke="#bfbfbf" points="873,-62 873,-81 922,-81 922,-62 873,-62"/>
<text text-anchor="middle" x="897.5" y="-69" font-family="Helvetica,sans-Serif" font-size="10.00">QTime</text>
</a>
</g>
</g>
<!-- Node1&#45;&gt;Node12 -->
<g id="edge12" class="edge">
<title>Node1&#45;&gt;Node12</title>
<path fill="none" stroke="midnightblue" d="M702.72,-124.76C744.67,-117.32 809.19,-104.37 863.5,-87 865.43,-86.38 867.39,-85.7 869.36,-84.97"/>
<polygon fill="midnightblue" stroke="midnightblue" points="871.04,-88.07 879.03,-81.12 868.45,-81.57 871.04,-88.07"/>
</g>
<!-- Node13 -->
<g id="node13" class="node">
<title>Node13</title>
<g id="a_node13"><a xlink:title=" ">
<polygon fill="white" stroke="#bfbfbf" points="940,-62 940,-81 993,-81 993,-62 940,-62"/>
<text text-anchor="middle" x="966.5" y="-69" font-family="Helvetica,sans-Serif" font-size="10.00">QTimer</text>
</a>
</g>
</g>
<!-- Node1&#45;&gt;Node13 -->
<g id="edge13" class="edge">
<title>Node1&#45;&gt;Node13</title>
<path fill="none" stroke="midnightblue" d="M702.68,-127.87C757.24,-122.05 852.51,-109.55 931.5,-87 933.79,-86.34 936.14,-85.58 938.48,-84.76"/>
<polygon fill="midnightblue" stroke="midnightblue" points="939.82,-88 947.89,-81.14 937.3,-81.46 939.82,-88"/>
</g>
<!-- Node14 -->
<g id="node14" class="node">
<title>Node14</title>
<g id="a_node14"><a xlink:title=" ">
<polygon fill="white" stroke="#bfbfbf" points="1011.5,-62 1011.5,-81 1049.5,-81 1049.5,-62 1011.5,-62"/>
<text text-anchor="middle" x="1030.5" y="-69" font-family="Helvetica,sans-Serif" font-size="10.00">QUrl</text>
</a>
</g>
</g>
<!-- Node1&#45;&gt;Node14 -->
<g id="edge14" class="edge">
<title>Node1&#45;&gt;Node14</title>
<path fill="none" stroke="midnightblue" d="M702.72,-131.09C769.23,-128.64 898.34,-119.67 1002.5,-87 1003.97,-86.54 1005.45,-86 1006.93,-85.42"/>
<polygon fill="midnightblue" stroke="midnightblue" points="1008.79,-88.41 1016.38,-81.02 1005.84,-82.07 1008.79,-88.41"/>
</g>
<!-- Node15 -->
<g id="node15" class="node">
<title>Node15</title>
<g id="a_node15"><a xlink:title=" ">
<polygon fill="white" stroke="#bfbfbf" points="1068,-62 1068,-81 1151,-81 1151,-62 1068,-62"/>
<text text-anchor="middle" x="1109.5" y="-69" font-family="Helvetica,sans-Serif" font-size="10.00">QVBoxLayout</text>
</a>
</g>
</g>
<!-- Node1&#45;&gt;Node15 -->
<g id="edge15" class="edge">
<title>Node1&#45;&gt;Node15</title>
<path fill="none" stroke="midnightblue" d="M702.66,-129.42C776.77,-124.56 930.63,-112.19 1058.5,-87 1063.22,-86.07 1068.14,-84.92 1072.97,-83.67"/>
<polygon fill="midnightblue" stroke="midnightblue" points="1073.98,-87.02 1082.7,-81.01 1072.14,-80.27 1073.98,-87.02"/>
</g>
<!-- Node2&#45;&gt;Node3 -->
<g id="edge2" class="edge">
<title>Node2&#45;&gt;Node3</title>
<path fill="none" stroke="midnightblue" d="M107.61,-61.98C95.53,-52.52 75.83,-37.1 61.26,-25.69"/>
<polygon fill="midnightblue" stroke="midnightblue" points="63.4,-22.92 53.37,-19.51 59.09,-28.43 63.4,-22.92"/>
</g>
<!-- Node4 -->
<g id="node4" class="node">
<title>Node4</title>
<g id="a_node4"><a xlink:title=" ">
<polygon fill="white" stroke="#bfbfbf" points="103,-0.5 103,-19.5 162,-19.5 162,-0.5 103,-0.5"/>
<text text-anchor="middle" x="132.5" y="-7.5" font-family="Helvetica,sans-Serif" font-size="10.00">QWidget</text>
</a>
</g>
</g>
<!-- Node2&#45;&gt;Node4 -->
<g id="edge3" class="edge">
<title>Node2&#45;&gt;Node4</title>
<path fill="none" stroke="midnightblue" d="M120.51,-61.98C122.5,-53.49 125.63,-40.2 128.19,-29.32"/>
<polygon fill="midnightblue" stroke="midnightblue" points="131.61,-30.04 130.5,-19.51 124.8,-28.44 131.61,-30.04"/>
</g>
</g>
</svg>
