<?xml version="1.0" encoding="UTF-8" standalone="no"?>
<!DOCTYPE svg PUBLIC "-//W3C//DTD SVG 1.1//EN"
 "http://www.w3.org/Graphics/SVG/1.1/DTD/svg11.dtd">
<!-- Generated by graphviz version 2.43.0 (0)
 -->
<!-- Title: video_player.h Pages: 1 -->
<svg width="1754pt" height="95pt"
 viewBox="0.00 0.00 1754.00 95.00" xmlns="http://www.w3.org/2000/svg" xmlns:xlink="http://www.w3.org/1999/xlink">
<g id="graph0" class="graph" transform="scale(1 1) rotate(0) translate(4 91)">
<title>video_player.h</title>
<polygon fill="white" stroke="transparent" points="-4,4 -4,-91 1750,-91 1750,4 -4,4"/>
<!-- Node1 -->
<g id="node1" class="node">
<title>Node1</title>
<g id="a_node1"><a xlink:title=" ">
<polygon fill="#bfbfbf" stroke="black" points="951.5,-67.5 951.5,-86.5 1039.5,-86.5 1039.5,-67.5 951.5,-67.5"/>
<text text-anchor="middle" x="995.5" y="-74.5" font-family="Helvetica,sans-Serif" font-size="10.00">video_player.h</text>
</a>
</g>
</g>
<!-- Node2 -->
<g id="node2" class="node">
<title>Node2</title>
<g id="a_node2"><a xlink:title=" ">
<polygon fill="white" stroke="#bfbfbf" points="0,-0.5 0,-30.5 123,-30.5 123,-0.5 0,-0.5"/>
<text text-anchor="start" x="8" y="-18.5" font-family="Helvetica,sans-Serif" font-size="10.00">QtMultimediaWidgets</text>
<text text-anchor="middle" x="61.5" y="-7.5" font-family="Helvetica,sans-Serif" font-size="10.00">/QVideoWidget</text>
</a>
</g>
</g>
<!-- Node1&#45;&gt;Node2 -->
<g id="edge1" class="edge">
<title>Node1&#45;&gt;Node2</title>
<path fill="none" stroke="midnightblue" d="M951.29,-76.02C825.1,-75.58 452.41,-70.84 133.73,-31.01"/>
<polygon fill="midnightblue" stroke="midnightblue" points="133.73,-27.48 123.37,-29.7 132.85,-34.43 133.73,-27.48"/>
</g>
<!-- Node3 -->
<g id="node3" class="node">
<title>Node3</title>
<g id="a_node3"><a xlink:title=" ">
<polygon fill="white" stroke="#bfbfbf" points="141.5,-6 141.5,-25 311.5,-25 311.5,-6 141.5,-6"/>
<text text-anchor="middle" x="226.5" y="-13" font-family="Helvetica,sans-Serif" font-size="10.00">QtNetwork/QNetworkDatagram</text>
</a>
</g>
</g>
<!-- Node1&#45;&gt;Node3 -->
<g id="edge2" class="edge">
<title>Node1&#45;&gt;Node3</title>
<path fill="none" stroke="midnightblue" d="M951.16,-74.37C843.07,-70.11 557.48,-57.13 320.5,-31 309.57,-29.79 297.96,-28.23 286.77,-26.59"/>
<polygon fill="midnightblue" stroke="midnightblue" points="287.05,-23.09 276.64,-25.06 286.01,-30.01 287.05,-23.09"/>
</g>
<!-- Node4 -->
<g id="node4" class="node">
<title>Node4</title>
<g id="a_node4"><a xlink:title=" ">
<polygon fill="white" stroke="#bfbfbf" points="330,-6 330,-25 461,-25 461,-6 330,-6"/>
<text text-anchor="middle" x="395.5" y="-13" font-family="Helvetica,sans-Serif" font-size="10.00">QtNetwork/QUdpSocket</text>
</a>
</g>
</g>
<!-- Node1&#45;&gt;Node4 -->
<g id="edge3" class="edge">
<title>Node1&#45;&gt;Node4</title>
<path fill="none" stroke="midnightblue" d="M951.33,-73.84C860.68,-69.05 647.17,-55.93 469.5,-31 461.48,-29.87 453.02,-28.45 444.79,-26.93"/>
<polygon fill="midnightblue" stroke="midnightblue" points="445.4,-23.48 434.92,-25.04 444.09,-30.36 445.4,-23.48"/>
</g>
<!-- Node5 -->
<g id="node5" class="node">
<title>Node5</title>
<g id="a_node5"><a xlink:title=" ">
<polygon fill="white" stroke="#bfbfbf" points="479,-6 479,-25 592,-25 592,-6 479,-6"/>
<text text-anchor="middle" x="535.5" y="-13" font-family="Helvetica,sans-Serif" font-size="10.00">QtWidgets/QWidget</text>
</a>
</g>
</g>
<!-- Node1&#45;&gt;Node5 -->
<g id="edge4" class="edge">
<title>Node1&#45;&gt;Node5</title>
<path fill="none" stroke="midnightblue" d="M951.45,-72.52C878.25,-66.39 727.1,-52.27 600.5,-31 594.06,-29.92 587.31,-28.61 580.68,-27.23"/>
<polygon fill="midnightblue" stroke="midnightblue" points="580.96,-23.71 570.45,-25.01 579.48,-30.55 580.96,-23.71"/>
</g>
<!-- Node6 -->
<g id="node6" class="node">
<title>Node6</title>
<g id="a_node6"><a xlink:title=" ">
<polygon fill="white" stroke="#bfbfbf" points="610,-6 610,-25 663,-25 663,-6 610,-6"/>
<text text-anchor="middle" x="636.5" y="-13" font-family="Helvetica,sans-Serif" font-size="10.00">QBuffer</text>
</a>
</g>
</g>
<!-- Node1&#45;&gt;Node6 -->
<g id="edge5" class="edge">
<title>Node1&#45;&gt;Node6</title>
<path fill="none" stroke="midnightblue" d="M951.29,-73.43C888.25,-68.98 769.32,-57.59 671.5,-31 669.06,-30.34 666.56,-29.54 664.07,-28.68"/>
<polygon fill="midnightblue" stroke="midnightblue" points="665.31,-25.4 654.72,-25.08 662.79,-31.94 665.31,-25.4"/>
</g>
<!-- Node7 -->
<g id="node7" class="node">
<title>Node7</title>
<g id="a_node7"><a xlink:title=" ">
<polygon fill="white" stroke="#bfbfbf" points="681,-6 681,-25 754,-25 754,-6 681,-6"/>
<text text-anchor="middle" x="717.5" y="-13" font-family="Helvetica,sans-Serif" font-size="10.00">QByteArray</text>
</a>
</g>
</g>
<!-- Node1&#45;&gt;Node7 -->
<g id="edge6" class="edge">
<title>Node1&#45;&gt;Node7</title>
<path fill="none" stroke="midnightblue" d="M951.35,-69.11C904.22,-61.37 827.55,-47.7 762.5,-31 759.06,-30.12 755.49,-29.12 751.94,-28.07"/>
<polygon fill="midnightblue" stroke="midnightblue" points="752.69,-24.63 742.1,-25.02 750.62,-31.32 752.69,-24.63"/>
</g>
<!-- Node8 -->
<g id="node8" class="node">
<title>Node8</title>
<g id="a_node8"><a xlink:title=" ">
<polygon fill="white" stroke="#bfbfbf" points="772,-6 772,-25 813,-25 813,-6 772,-6"/>
<text text-anchor="middle" x="792.5" y="-13" font-family="Helvetica,sans-Serif" font-size="10.00">QFile</text>
</a>
</g>
</g>
<!-- Node1&#45;&gt;Node8 -->
<g id="edge7" class="edge">
<title>Node1&#45;&gt;Node8</title>
<path fill="none" stroke="midnightblue" d="M953.2,-67.43C917.73,-59.67 866.05,-47.01 822.5,-31 821.07,-30.48 819.63,-29.91 818.17,-29.31"/>
<polygon fill="midnightblue" stroke="midnightblue" points="819.31,-25.98 808.75,-25.07 816.44,-32.36 819.31,-25.98"/>
</g>
<!-- Node9 -->
<g id="node9" class="node">
<title>Node9</title>
<g id="a_node9"><a xlink:title=" ">
<polygon fill="white" stroke="#bfbfbf" points="831.5,-6 831.5,-25 881.5,-25 881.5,-6 831.5,-6"/>
<text text-anchor="middle" x="856.5" y="-13" font-family="Helvetica,sans-Serif" font-size="10.00">QLabel</text>
</a>
</g>
</g>
<!-- Node1&#45;&gt;Node9 -->
<g id="edge8" class="edge">
<title>Node1&#45;&gt;Node9</title>
<path fill="none" stroke="midnightblue" d="M975.58,-67.48C952.05,-57.4 912.69,-40.55 885.71,-29"/>
<polygon fill="midnightblue" stroke="midnightblue" points="886.95,-25.73 876.38,-25.01 884.19,-32.16 886.95,-25.73"/>
</g>
<!-- Node10 -->
<g id="node10" class="node">
<title>Node10</title>
<g id="a_node10"><a xlink:title=" ">
<polygon fill="white" stroke="#bfbfbf" points="900,-6 900,-25 987,-25 987,-6 900,-6"/>
<text text-anchor="middle" x="943.5" y="-13" font-family="Helvetica,sans-Serif" font-size="10.00">QMainWindow</text>
</a>
</g>
</g>
<!-- Node1&#45;&gt;Node10 -->
<g id="edge9" class="edge">
<title>Node1&#45;&gt;Node10</title>
<path fill="none" stroke="midnightblue" d="M988.05,-67.48C980.17,-58.46 967.56,-44.02 957.76,-32.81"/>
<polygon fill="midnightblue" stroke="midnightblue" points="960.15,-30.24 950.94,-25.01 954.88,-34.84 960.15,-30.24"/>
</g>
<!-- Node11 -->
<g id="node11" class="node">
<title>Node11</title>
<g id="a_node11"><a xlink:title=" ">
<polygon fill="white" stroke="#bfbfbf" points="1005,-6 1005,-25 1090,-25 1090,-6 1005,-6"/>
<text text-anchor="middle" x="1047.5" y="-13" font-family="Helvetica,sans-Serif" font-size="10.00">QMediaPlayer</text>
</a>
</g>
</g>
<!-- Node1&#45;&gt;Node11 -->
<g id="edge10" class="edge">
<title>Node1&#45;&gt;Node11</title>
<path fill="none" stroke="midnightblue" d="M1002.95,-67.48C1010.83,-58.46 1023.44,-44.02 1033.24,-32.81"/>
<polygon fill="midnightblue" stroke="midnightblue" points="1036.12,-34.84 1040.06,-25.01 1030.85,-30.24 1036.12,-34.84"/>
</g>
<!-- Node12 -->
<g id="node12" class="node">
<title>Node12</title>
<g id="a_node12"><a xlink:title=" ">
<polygon fill="white" stroke="#bfbfbf" points="1108.5,-6 1108.5,-25 1164.5,-25 1164.5,-6 1108.5,-6"/>
<text text-anchor="middle" x="1136.5" y="-13" font-family="Helvetica,sans-Serif" font-size="10.00">QObject</text>
</a>
</g>
</g>
<!-- Node1&#45;&gt;Node12 -->
<g id="edge11" class="edge">
<title>Node1&#45;&gt;Node12</title>
<path fill="none" stroke="midnightblue" d="M1015.7,-67.48C1039.57,-57.4 1079.5,-40.55 1106.87,-29"/>
<polygon fill="midnightblue" stroke="midnightblue" points="1108.48,-32.12 1116.34,-25.01 1105.76,-25.67 1108.48,-32.12"/>
</g>
<!-- Node13 -->
<g id="node13" class="node">
<title>Node13</title>
<g id="a_node13"><a xlink:title=" ">
<polygon fill="white" stroke="#bfbfbf" points="1182.5,-6 1182.5,-25 1262.5,-25 1262.5,-6 1182.5,-6"/>
<text text-anchor="middle" x="1222.5" y="-13" font-family="Helvetica,sans-Serif" font-size="10.00">QPushButton</text>
</a>
</g>
</g>
<!-- Node1&#45;&gt;Node13 -->
<g id="edge12" class="edge">
<title>Node1&#45;&gt;Node13</title>
<path fill="none" stroke="midnightblue" d="M1031.07,-67.45C1067.08,-58.69 1124.32,-44.49 1173.5,-31 1177.09,-30.02 1180.82,-28.96 1184.55,-27.89"/>
<polygon fill="midnightblue" stroke="midnightblue" points="1185.69,-31.21 1194.31,-25.05 1183.73,-24.49 1185.69,-31.21"/>
</g>
<!-- Node14 -->
<g id="node14" class="node">
<title>Node14</title>
<g id="a_node14"><a xlink:title=" ">
<polygon fill="white" stroke="#bfbfbf" points="1280.5,-6 1280.5,-25 1332.5,-25 1332.5,-6 1280.5,-6"/>
<text text-anchor="middle" x="1306.5" y="-13" font-family="Helvetica,sans-Serif" font-size="10.00">QSlider</text>
</a>
</g>
</g>
<!-- Node1&#45;&gt;Node14 -->
<g id="edge13" class="edge">
<title>Node1&#45;&gt;Node14</title>
<path fill="none" stroke="midnightblue" d="M1039.68,-71.98C1094.76,-66.24 1191.42,-53.79 1271.5,-31 1273.8,-30.35 1276.14,-29.59 1278.48,-28.77"/>
<polygon fill="midnightblue" stroke="midnightblue" points="1279.82,-32 1287.89,-25.14 1277.3,-25.47 1279.82,-32"/>
</g>
<!-- Node15 -->
<g id="node15" class="node">
<title>Node15</title>
<g id="a_node15"><a xlink:title=" ">
<polygon fill="white" stroke="#bfbfbf" points="1351,-6 1351,-25 1444,-25 1444,-6 1351,-6"/>
<text text-anchor="middle" x="1397.5" y="-13" font-family="Helvetica,sans-Serif" font-size="10.00">QTemporaryFile</text>
</a>
</g>
</g>
<!-- Node1&#45;&gt;Node15 -->
<g id="edge14" class="edge">
<title>Node1&#45;&gt;Node15</title>
<path fill="none" stroke="midnightblue" d="M1039.75,-72.02C1105.82,-65.67 1234.01,-51.82 1341.5,-31 1346.67,-30 1352.07,-28.8 1357.38,-27.53"/>
<polygon fill="midnightblue" stroke="midnightblue" points="1358.58,-30.84 1367.43,-25.02 1356.88,-24.04 1358.58,-30.84"/>
</g>
<!-- Node16 -->
<g id="node16" class="node">
<title>Node16</title>
<g id="a_node16"><a xlink:title=" ">
<polygon fill="white" stroke="#bfbfbf" points="1462.5,-6 1462.5,-25 1520.5,-25 1520.5,-6 1462.5,-6"/>
<text text-anchor="middle" x="1491.5" y="-13" font-family="Helvetica,sans-Serif" font-size="10.00">QThread</text>
</a>
</g>
</g>
<!-- Node1&#45;&gt;Node16 -->
<g id="edge15" class="edge">
<title>Node1&#45;&gt;Node16</title>
<path fill="none" stroke="midnightblue" d="M1039.71,-75.55C1122.17,-73.85 1304.57,-66.06 1453.5,-31 1456.5,-30.29 1459.57,-29.41 1462.62,-28.42"/>
<polygon fill="midnightblue" stroke="midnightblue" points="1463.85,-31.7 1472.09,-25.05 1461.5,-25.11 1463.85,-31.7"/>
</g>
<!-- Node17 -->
<g id="node17" class="node">
<title>Node17</title>
<g id="a_node17"><a xlink:title=" ">
<polygon fill="white" stroke="#bfbfbf" points="1539,-6 1539,-25 1588,-25 1588,-6 1539,-6"/>
<text text-anchor="middle" x="1563.5" y="-13" font-family="Helvetica,sans-Serif" font-size="10.00">QTime</text>
</a>
</g>
</g>
<!-- Node1&#45;&gt;Node17 -->
<g id="edge16" class="edge">
<title>Node1&#45;&gt;Node17</title>
<path fill="none" stroke="midnightblue" d="M1039.62,-74.09C1150.2,-69.02 1436.95,-54 1529.5,-31 1531.86,-30.41 1534.28,-29.68 1536.67,-28.86"/>
<polygon fill="midnightblue" stroke="midnightblue" points="1538.18,-32.03 1546.22,-25.13 1535.63,-25.51 1538.18,-32.03"/>
</g>
<!-- Node18 -->
<g id="node18" class="node">
<title>Node18</title>
<g id="a_node18"><a xlink:title=" ">
<polygon fill="white" stroke="#bfbfbf" points="1606.5,-6 1606.5,-25 1644.5,-25 1644.5,-6 1606.5,-6"/>
<text text-anchor="middle" x="1625.5" y="-13" font-family="Helvetica,sans-Serif" font-size="10.00">QUrl</text>
</a>
</g>
</g>
<!-- Node1&#45;&gt;Node18 -->
<g id="edge17" class="edge">
<title>Node1&#45;&gt;Node18</title>
<path fill="none" stroke="midnightblue" d="M1039.56,-74.99C1159.96,-71.88 1492.51,-60.76 1597.5,-31 1599.17,-30.53 1600.85,-29.95 1602.51,-29.3"/>
<polygon fill="midnightblue" stroke="midnightblue" points="1604.12,-32.42 1611.72,-25.04 1601.17,-26.07 1604.12,-32.42"/>
</g>
<!-- Node19 -->
<g id="node19" class="node">
<title>Node19</title>
<g id="a_node19"><a xlink:title=" ">
<polygon fill="white" stroke="#bfbfbf" points="1663,-6 1663,-25 1746,-25 1746,-6 1663,-6"/>
<text text-anchor="middle" x="1704.5" y="-13" font-family="Helvetica,sans-Serif" font-size="10.00">QVBoxLayout</text>
</a>
</g>
</g>
<!-- Node1&#45;&gt;Node19 -->
<g id="edge18" class="edge">
<title>Node1&#45;&gt;Node19</title>
<path fill="none" stroke="midnightblue" d="M1039.77,-76.14C1146.31,-75.81 1425.08,-70.83 1653.5,-31 1658.4,-30.15 1663.5,-29.01 1668.51,-27.74"/>
<polygon fill="midnightblue" stroke="midnightblue" points="1669.8,-31.01 1678.54,-25.01 1667.97,-24.26 1669.8,-31.01"/>
</g>
</g>
</svg>
