<?xml version="1.0" encoding="UTF-8" standalone="no"?>
<!DOCTYPE svg PUBLIC "-//W3C//DTD SVG 1.1//EN"
 "http://www.w3.org/Graphics/SVG/1.1/DTD/svg11.dtd">
<!-- Generated by graphviz version 2.43.0 (0)
 -->
<!-- Title: video_display_impl.h Pages: 1 -->
<svg width="1766pt" height="218pt"
 viewBox="0.00 0.00 1766.00 218.00" xmlns="http://www.w3.org/2000/svg" xmlns:xlink="http://www.w3.org/1999/xlink">
<g id="graph0" class="graph" transform="scale(1 1) rotate(0) translate(4 214)">
<title>video_display_impl.h</title>
<polygon fill="white" stroke="transparent" points="-4,4 -4,-214 1762,-214 1762,4 -4,4"/>
<!-- Node1 -->
<g id="node1" class="node">
<title>Node1</title>
<g id="a_node1"><a xlink:title=" ">
<polygon fill="#bfbfbf" stroke="black" points="1428.5,-190.5 1428.5,-209.5 1548.5,-209.5 1548.5,-190.5 1428.5,-190.5"/>
<text text-anchor="middle" x="1488.5" y="-197.5" font-family="Helvetica,sans-Serif" font-size="10.00">video_display_impl.h</text>
</a>
</g>
</g>
<!-- Node2 -->
<g id="node2" class="node">
<title>Node2</title>
<g id="a_node2"><a xlink:href="video__player_8h.html" target="_top" xlink:title=" ">
<polygon fill="white" stroke="black" points="619.5,-129 619.5,-148 707.5,-148 707.5,-129 619.5,-129"/>
<text text-anchor="middle" x="663.5" y="-136" font-family="Helvetica,sans-Serif" font-size="10.00">video_player.h</text>
</a>
</g>
</g>
<!-- Node1&#45;&gt;Node2 -->
<g id="edge1" class="edge">
<title>Node1&#45;&gt;Node2</title>
<path fill="none" stroke="midnightblue" d="M1428.17,-194.65C1273.64,-183.5 865.39,-154.06 717.75,-143.41"/>
<polygon fill="midnightblue" stroke="midnightblue" points="717.81,-139.91 707.58,-142.68 717.3,-146.89 717.81,-139.91"/>
</g>
<!-- Node17 -->
<g id="node17" class="node">
<title>Node17</title>
<g id="a_node17"><a xlink:href="video__display_8h.html" target="_top" xlink:title=" ">
<polygon fill="white" stroke="black" points="1241.5,-123.5 1241.5,-153.5 1367.5,-153.5 1367.5,-123.5 1241.5,-123.5"/>
<text text-anchor="start" x="1249.5" y="-141.5" font-family="Helvetica,sans-Serif" font-size="10.00">gnuradio/videoDisplay</text>
<text text-anchor="middle" x="1304.5" y="-130.5" font-family="Helvetica,sans-Serif" font-size="10.00">/video_display.h</text>
</a>
</g>
</g>
<!-- Node1&#45;&gt;Node17 -->
<g id="edge17" class="edge">
<title>Node1&#45;&gt;Node17</title>
<path fill="none" stroke="midnightblue" d="M1462.14,-190.48C1435,-181.7 1391.98,-167.79 1357.73,-156.71"/>
<polygon fill="midnightblue" stroke="midnightblue" points="1358.46,-153.27 1347.87,-153.52 1356.3,-159.93 1358.46,-153.27"/>
</g>
<!-- Node21 -->
<g id="node21" class="node">
<title>Node21</title>
<g id="a_node21"><a xlink:title=" ">
<polygon fill="white" stroke="#bfbfbf" points="1457.5,-62 1457.5,-81 1543.5,-81 1543.5,-62 1457.5,-62"/>
<text text-anchor="middle" x="1500.5" y="-69" font-family="Helvetica,sans-Serif" font-size="10.00">qapplication.h</text>
</a>
</g>
</g>
<!-- Node1&#45;&gt;Node21 -->
<g id="edge24" class="edge">
<title>Node1&#45;&gt;Node21</title>
<path fill="none" stroke="midnightblue" d="M1461.57,-190.36C1444.78,-183.41 1424.52,-171.82 1414.5,-154 1407.75,-141.99 1407.66,-134.96 1414.5,-123 1424.73,-105.12 1444.03,-92.96 1461.75,-85.05"/>
<polygon fill="midnightblue" stroke="midnightblue" points="1463.46,-88.13 1471.37,-81.09 1460.79,-81.66 1463.46,-88.13"/>
</g>
<!-- Node22 -->
<g id="node22" class="node">
<title>Node22</title>
<g id="a_node22"><a xlink:title=" ">
<polygon fill="white" stroke="#bfbfbf" points="1423.5,-129 1423.5,-148 1553.5,-148 1553.5,-129 1423.5,-129"/>
<text text-anchor="middle" x="1488.5" y="-136" font-family="Helvetica,sans-Serif" font-size="10.00">QtCore/QTemporaryFile</text>
</a>
</g>
</g>
<!-- Node1&#45;&gt;Node22 -->
<g id="edge23" class="edge">
<title>Node1&#45;&gt;Node22</title>
<path fill="none" stroke="midnightblue" d="M1488.5,-190.48C1488.5,-182.08 1488.5,-168.98 1488.5,-158.16"/>
<polygon fill="midnightblue" stroke="midnightblue" points="1492,-158.01 1488.5,-148.01 1485,-158.01 1492,-158.01"/>
</g>
<!-- Node23 -->
<g id="node23" class="node">
<title>Node23</title>
<g id="a_node23"><a xlink:title=" ">
<polygon fill="white" stroke="#bfbfbf" points="1571.5,-129 1571.5,-148 1617.5,-148 1617.5,-129 1571.5,-129"/>
<text text-anchor="middle" x="1594.5" y="-136" font-family="Helvetica,sans-Serif" font-size="10.00">cstdio</text>
</a>
</g>
</g>
<!-- Node1&#45;&gt;Node23 -->
<g id="edge25" class="edge">
<title>Node1&#45;&gt;Node23</title>
<path fill="none" stroke="midnightblue" d="M1503.69,-190.48C1521.16,-180.67 1550.08,-164.43 1570.58,-152.92"/>
<polygon fill="midnightblue" stroke="midnightblue" points="1572.33,-155.96 1579.34,-148.01 1568.91,-149.85 1572.33,-155.96"/>
</g>
<!-- Node24 -->
<g id="node24" class="node">
<title>Node24</title>
<g id="a_node24"><a xlink:title=" ">
<polygon fill="white" stroke="#bfbfbf" points="1636,-129 1636,-148 1685,-148 1685,-129 1636,-129"/>
<text text-anchor="middle" x="1660.5" y="-136" font-family="Helvetica,sans-Serif" font-size="10.00">cstdlib</text>
</a>
</g>
</g>
<!-- Node1&#45;&gt;Node24 -->
<g id="edge26" class="edge">
<title>Node1&#45;&gt;Node24</title>
<path fill="none" stroke="midnightblue" d="M1517.03,-190.5C1545.12,-181.94 1589.11,-168.04 1626.5,-154 1628.15,-153.38 1629.84,-152.73 1631.54,-152.05"/>
<polygon fill="midnightblue" stroke="midnightblue" points="1633.28,-155.12 1641.2,-148.08 1630.62,-148.65 1633.28,-155.12"/>
</g>
<!-- Node25 -->
<g id="node25" class="node">
<title>Node25</title>
<g id="a_node25"><a xlink:title=" ">
<polygon fill="white" stroke="#bfbfbf" points="1703,-129 1703,-148 1758,-148 1758,-129 1703,-129"/>
<text text-anchor="middle" x="1730.5" y="-136" font-family="Helvetica,sans-Serif" font-size="10.00">fstream</text>
</a>
</g>
</g>
<!-- Node1&#45;&gt;Node25 -->
<g id="edge27" class="edge">
<title>Node1&#45;&gt;Node25</title>
<path fill="none" stroke="midnightblue" d="M1538.64,-190.49C1580.73,-182.76 1642.2,-170.12 1694.5,-154 1696.78,-153.3 1699.12,-152.51 1701.46,-151.68"/>
<polygon fill="midnightblue" stroke="midnightblue" points="1702.81,-154.91 1710.91,-148.08 1700.32,-148.37 1702.81,-154.91"/>
</g>
<!-- Node3 -->
<g id="node3" class="node">
<title>Node3</title>
<g id="a_node3"><a xlink:href="playercontrols_8h.html" target="_top" xlink:title=" ">
<polygon fill="white" stroke="black" points="33,-62 33,-81 128,-81 128,-62 33,-62"/>
<text text-anchor="middle" x="80.5" y="-69" font-family="Helvetica,sans-Serif" font-size="10.00">playercontrols.h</text>
</a>
</g>
</g>
<!-- Node2&#45;&gt;Node3 -->
<g id="edge2" class="edge">
<title>Node2&#45;&gt;Node3</title>
<path fill="none" stroke="midnightblue" d="M619.46,-135.63C528.58,-131.26 313.91,-118.27 136.5,-87 131.06,-86.04 125.37,-84.83 119.8,-83.51"/>
<polygon fill="midnightblue" stroke="midnightblue" points="120.5,-80.08 109.95,-81.06 118.81,-86.87 120.5,-80.08"/>
</g>
<!-- Node4 -->
<g id="node4" class="node">
<title>Node4</title>
<g id="a_node4"><a xlink:title=" ">
<polygon fill="white" stroke="#bfbfbf" points="0,-0.5 0,-19.5 85,-19.5 85,-0.5 0,-0.5"/>
<text text-anchor="middle" x="42.5" y="-7.5" font-family="Helvetica,sans-Serif" font-size="10.00">QMediaPlayer</text>
</a>
</g>
</g>
<!-- Node2&#45;&gt;Node4 -->
<g id="edge9" class="edge">
<title>Node2&#45;&gt;Node4</title>
<path fill="none" stroke="midnightblue" d="M619.29,-137.4C481.07,-136.62 63.83,-130.64 23.5,-87 8.7,-70.99 19.89,-45.23 30.32,-28.21"/>
<polygon fill="midnightblue" stroke="midnightblue" points="33.3,-30.04 35.87,-19.77 27.45,-26.2 33.3,-30.04"/>
</g>
<!-- Node6 -->
<g id="node6" class="node">
<title>Node6</title>
<g id="a_node6"><a xlink:title=" ">
<polygon fill="white" stroke="#bfbfbf" points="146,-56.5 146,-86.5 269,-86.5 269,-56.5 146,-56.5"/>
<text text-anchor="start" x="154" y="-74.5" font-family="Helvetica,sans-Serif" font-size="10.00">QtMultimediaWidgets</text>
<text text-anchor="middle" x="207.5" y="-63.5" font-family="Helvetica,sans-Serif" font-size="10.00">/QVideoWidget</text>
</a>
</g>
</g>
<!-- Node2&#45;&gt;Node6 -->
<g id="edge5" class="edge">
<title>Node2&#45;&gt;Node6</title>
<path fill="none" stroke="midnightblue" d="M619.35,-132.8C549.29,-125.11 408.19,-108.67 279.33,-87.24"/>
<polygon fill="midnightblue" stroke="midnightblue" points="279.73,-83.76 269.29,-85.56 278.57,-90.66 279.73,-83.76"/>
</g>
<!-- Node7 -->
<g id="node7" class="node">
<title>Node7</title>
<g id="a_node7"><a xlink:title=" ">
<polygon fill="white" stroke="#bfbfbf" points="287,-62 287,-81 400,-81 400,-62 287,-62"/>
<text text-anchor="middle" x="343.5" y="-69" font-family="Helvetica,sans-Serif" font-size="10.00">QtWidgets/QWidget</text>
</a>
</g>
</g>
<!-- Node2&#45;&gt;Node7 -->
<g id="edge6" class="edge">
<title>Node2&#45;&gt;Node7</title>
<path fill="none" stroke="midnightblue" d="M619.39,-129.01C568.69,-119.18 482.99,-102.38 409.5,-87 403.76,-85.8 397.75,-84.52 391.79,-83.23"/>
<polygon fill="midnightblue" stroke="midnightblue" points="392.38,-79.77 381.86,-81.06 390.89,-86.61 392.38,-79.77"/>
</g>
<!-- Node8 -->
<g id="node8" class="node">
<title>Node8</title>
<g id="a_node8"><a xlink:title=" ">
<polygon fill="white" stroke="#bfbfbf" points="418.5,-62 418.5,-81 468.5,-81 468.5,-62 418.5,-62"/>
<text text-anchor="middle" x="443.5" y="-69" font-family="Helvetica,sans-Serif" font-size="10.00">QLabel</text>
</a>
</g>
</g>
<!-- Node2&#45;&gt;Node8 -->
<g id="edge7" class="edge">
<title>Node2&#45;&gt;Node8</title>
<path fill="none" stroke="midnightblue" d="M625.99,-128.93C588.09,-119.89 528.08,-104.56 477.5,-87 475.64,-86.35 473.73,-85.65 471.82,-84.92"/>
<polygon fill="midnightblue" stroke="midnightblue" points="472.96,-81.61 462.38,-81.1 470.34,-88.1 472.96,-81.61"/>
</g>
<!-- Node9 -->
<g id="node9" class="node">
<title>Node9</title>
<g id="a_node9"><a xlink:title=" ">
<polygon fill="white" stroke="#bfbfbf" points="487,-62 487,-81 574,-81 574,-62 487,-62"/>
<text text-anchor="middle" x="530.5" y="-69" font-family="Helvetica,sans-Serif" font-size="10.00">QMainWindow</text>
</a>
</g>
</g>
<!-- Node2&#45;&gt;Node9 -->
<g id="edge8" class="edge">
<title>Node2&#45;&gt;Node9</title>
<path fill="none" stroke="midnightblue" d="M645.84,-128.87C623.18,-117.8 583.67,-98.49 557.3,-85.6"/>
<polygon fill="midnightblue" stroke="midnightblue" points="558.76,-82.41 548.23,-81.17 555.68,-88.7 558.76,-82.41"/>
</g>
<!-- Node10 -->
<g id="node10" class="node">
<title>Node10</title>
<g id="a_node10"><a xlink:title=" ">
<polygon fill="white" stroke="#bfbfbf" points="592.5,-62 592.5,-81 648.5,-81 648.5,-62 592.5,-62"/>
<text text-anchor="middle" x="620.5" y="-69" font-family="Helvetica,sans-Serif" font-size="10.00">QObject</text>
</a>
</g>
</g>
<!-- Node2&#45;&gt;Node10 -->
<g id="edge10" class="edge">
<title>Node2&#45;&gt;Node10</title>
<path fill="none" stroke="midnightblue" d="M657.7,-128.73C651.12,-118.79 640.24,-102.34 631.94,-89.79"/>
<polygon fill="midnightblue" stroke="midnightblue" points="634.64,-87.54 626.21,-81.13 628.81,-91.4 634.64,-87.54"/>
</g>
<!-- Node11 -->
<g id="node11" class="node">
<title>Node11</title>
<g id="a_node11"><a xlink:title=" ">
<polygon fill="white" stroke="#bfbfbf" points="666.5,-62 666.5,-81 746.5,-81 746.5,-62 666.5,-62"/>
<text text-anchor="middle" x="706.5" y="-69" font-family="Helvetica,sans-Serif" font-size="10.00">QPushButton</text>
</a>
</g>
</g>
<!-- Node2&#45;&gt;Node11 -->
<g id="edge11" class="edge">
<title>Node2&#45;&gt;Node11</title>
<path fill="none" stroke="midnightblue" d="M669.3,-128.73C675.88,-118.79 686.76,-102.34 695.06,-89.79"/>
<polygon fill="midnightblue" stroke="midnightblue" points="698.19,-91.4 700.79,-81.13 692.36,-87.54 698.19,-91.4"/>
</g>
<!-- Node12 -->
<g id="node12" class="node">
<title>Node12</title>
<g id="a_node12"><a xlink:title=" ">
<polygon fill="white" stroke="#bfbfbf" points="764.5,-62 764.5,-81 816.5,-81 816.5,-62 764.5,-62"/>
<text text-anchor="middle" x="790.5" y="-69" font-family="Helvetica,sans-Serif" font-size="10.00">QSlider</text>
</a>
</g>
</g>
<!-- Node2&#45;&gt;Node12 -->
<g id="edge12" class="edge">
<title>Node2&#45;&gt;Node12</title>
<path fill="none" stroke="midnightblue" d="M680.36,-128.87C701.9,-117.84 739.4,-98.66 764.58,-85.77"/>
<polygon fill="midnightblue" stroke="midnightblue" points="766.26,-88.84 773.57,-81.17 763.07,-82.61 766.26,-88.84"/>
</g>
<!-- Node13 -->
<g id="node13" class="node">
<title>Node13</title>
<g id="a_node13"><a xlink:title=" ">
<polygon fill="white" stroke="#bfbfbf" points="835,-62 835,-81 884,-81 884,-62 835,-62"/>
<text text-anchor="middle" x="859.5" y="-69" font-family="Helvetica,sans-Serif" font-size="10.00">QTime</text>
</a>
</g>
</g>
<!-- Node2&#45;&gt;Node13 -->
<g id="edge13" class="edge">
<title>Node2&#45;&gt;Node13</title>
<path fill="none" stroke="midnightblue" d="M694.26,-128.91C727.08,-119.52 780.44,-103.59 825.5,-87 827.16,-86.39 828.85,-85.74 830.55,-85.08"/>
<polygon fill="midnightblue" stroke="midnightblue" points="832.29,-88.15 840.22,-81.12 829.64,-81.67 832.29,-88.15"/>
</g>
<!-- Node14 -->
<g id="node14" class="node">
<title>Node14</title>
<g id="a_node14"><a xlink:title=" ">
<polygon fill="white" stroke="#bfbfbf" points="902,-62 902,-81 955,-81 955,-62 902,-62"/>
<text text-anchor="middle" x="928.5" y="-69" font-family="Helvetica,sans-Serif" font-size="10.00">QTimer</text>
</a>
</g>
</g>
<!-- Node2&#45;&gt;Node14 -->
<g id="edge14" class="edge">
<title>Node2&#45;&gt;Node14</title>
<path fill="none" stroke="midnightblue" d="M707.54,-130.03C754.06,-121.63 829.3,-106.55 892.5,-87 894.78,-86.29 897.12,-85.51 899.46,-84.67"/>
<polygon fill="midnightblue" stroke="midnightblue" points="900.81,-87.9 908.91,-81.08 898.32,-81.36 900.81,-87.9"/>
</g>
<!-- Node15 -->
<g id="node15" class="node">
<title>Node15</title>
<g id="a_node15"><a xlink:title=" ">
<polygon fill="white" stroke="#bfbfbf" points="973.5,-62 973.5,-81 1011.5,-81 1011.5,-62 973.5,-62"/>
<text text-anchor="middle" x="992.5" y="-69" font-family="Helvetica,sans-Serif" font-size="10.00">QUrl</text>
</a>
</g>
</g>
<!-- Node2&#45;&gt;Node15 -->
<g id="edge15" class="edge">
<title>Node2&#45;&gt;Node15</title>
<path fill="none" stroke="midnightblue" d="M707.69,-134.18C767.08,-128.81 875.37,-115.74 963.5,-87 965.12,-86.47 966.76,-85.87 968.4,-85.21"/>
<polygon fill="midnightblue" stroke="midnightblue" points="969.86,-88.39 977.51,-81.05 966.96,-82.02 969.86,-88.39"/>
</g>
<!-- Node16 -->
<g id="node16" class="node">
<title>Node16</title>
<g id="a_node16"><a xlink:title=" ">
<polygon fill="white" stroke="#bfbfbf" points="1030,-62 1030,-81 1113,-81 1113,-62 1030,-62"/>
<text text-anchor="middle" x="1071.5" y="-69" font-family="Helvetica,sans-Serif" font-size="10.00">QVBoxLayout</text>
</a>
</g>
</g>
<!-- Node2&#45;&gt;Node16 -->
<g id="edge16" class="edge">
<title>Node2&#45;&gt;Node16</title>
<path fill="none" stroke="midnightblue" d="M707.53,-133.23C775.26,-126.22 908.9,-110.64 1020.5,-87 1024.98,-86.05 1029.64,-84.92 1034.24,-83.72"/>
<polygon fill="midnightblue" stroke="midnightblue" points="1035.42,-87.03 1044.15,-81.02 1033.58,-80.28 1035.42,-87.03"/>
</g>
<!-- Node3&#45;&gt;Node4 -->
<g id="edge3" class="edge">
<title>Node3&#45;&gt;Node4</title>
<path fill="none" stroke="midnightblue" d="M75.06,-61.98C69.41,-53.14 60.44,-39.09 53.34,-27.98"/>
<polygon fill="midnightblue" stroke="midnightblue" points="56.27,-26.05 47.93,-19.51 50.37,-29.82 56.27,-26.05"/>
</g>
<!-- Node5 -->
<g id="node5" class="node">
<title>Node5</title>
<g id="a_node5"><a xlink:title=" ">
<polygon fill="white" stroke="#bfbfbf" points="608,-0.5 608,-19.5 667,-19.5 667,-0.5 608,-0.5"/>
<text text-anchor="middle" x="637.5" y="-7.5" font-family="Helvetica,sans-Serif" font-size="10.00">QWidget</text>
</a>
</g>
</g>
<!-- Node3&#45;&gt;Node5 -->
<g id="edge4" class="edge">
<title>Node3&#45;&gt;Node5</title>
<path fill="none" stroke="midnightblue" d="M109.66,-61.99C118.24,-59.74 127.69,-57.53 136.5,-56 306.66,-26.53 512.89,-15.74 597.92,-12.35"/>
<polygon fill="midnightblue" stroke="midnightblue" points="598.06,-15.85 607.92,-11.97 597.79,-8.85 598.06,-15.85"/>
</g>
<!-- Node17&#45;&gt;Node5 -->
<g id="edge22" class="edge">
<title>Node17&#45;&gt;Node5</title>
<path fill="none" stroke="midnightblue" d="M1251.04,-123.42C1223.1,-114.92 1188.91,-102.69 1160.5,-87 1141.12,-76.3 1142.04,-64.26 1121.5,-56 1041.05,-23.67 777.93,-14.25 677.21,-11.79"/>
<polygon fill="midnightblue" stroke="midnightblue" points="677.22,-8.29 667.14,-11.55 677.06,-15.29 677.22,-8.29"/>
</g>
<!-- Node18 -->
<g id="node18" class="node">
<title>Node18</title>
<g id="a_node18"><a xlink:title=" ">
<polygon fill="white" stroke="#bfbfbf" points="1170,-62 1170,-81 1295,-81 1295,-62 1170,-62"/>
<text text-anchor="middle" x="1232.5" y="-69" font-family="Helvetica,sans-Serif" font-size="10.00">gnuradio/sync_block.h</text>
</a>
</g>
</g>
<!-- Node17&#45;&gt;Node18 -->
<g id="edge18" class="edge">
<title>Node17&#45;&gt;Node18</title>
<path fill="none" stroke="midnightblue" d="M1288.88,-123.4C1277.32,-112.96 1261.58,-98.75 1249.67,-88"/>
<polygon fill="midnightblue" stroke="midnightblue" points="1251.9,-85.3 1242.13,-81.19 1247.21,-90.49 1251.9,-85.3"/>
</g>
<!-- Node19 -->
<g id="node19" class="node">
<title>Node19</title>
<g id="a_node19"><a xlink:href="api_8h.html" target="_top" xlink:title=" ">
<polygon fill="white" stroke="black" points="1313.5,-56.5 1313.5,-86.5 1439.5,-86.5 1439.5,-56.5 1313.5,-56.5"/>
<text text-anchor="start" x="1321.5" y="-74.5" font-family="Helvetica,sans-Serif" font-size="10.00">gnuradio/videoDisplay</text>
<text text-anchor="middle" x="1376.5" y="-63.5" font-family="Helvetica,sans-Serif" font-size="10.00">/api.h</text>
</a>
</g>
</g>
<!-- Node17&#45;&gt;Node19 -->
<g id="edge19" class="edge">
<title>Node17&#45;&gt;Node19</title>
<path fill="none" stroke="midnightblue" d="M1320.12,-123.4C1329.84,-114.62 1342.51,-103.18 1353.38,-93.37"/>
<polygon fill="midnightblue" stroke="midnightblue" points="1355.83,-95.88 1360.91,-86.58 1351.14,-90.68 1355.83,-95.88"/>
</g>
<!-- Node17&#45;&gt;Node21 -->
<g id="edge21" class="edge">
<title>Node17&#45;&gt;Node21</title>
<path fill="none" stroke="midnightblue" d="M1347.03,-123.4C1382.33,-111.69 1431.96,-95.23 1465.12,-84.23"/>
<polygon fill="midnightblue" stroke="midnightblue" points="1466.46,-87.48 1474.85,-81.01 1464.25,-80.83 1466.46,-87.48"/>
</g>
<!-- Node20 -->
<g id="node20" class="node">
<title>Node20</title>
<g id="a_node20"><a xlink:title=" ">
<polygon fill="white" stroke="#bfbfbf" points="1317,-0.5 1317,-19.5 1436,-19.5 1436,-0.5 1317,-0.5"/>
<text text-anchor="middle" x="1376.5" y="-7.5" font-family="Helvetica,sans-Serif" font-size="10.00">gnuradio/attributes.h</text>
</a>
</g>
</g>
<!-- Node19&#45;&gt;Node20 -->
<g id="edge20" class="edge">
<title>Node19&#45;&gt;Node20</title>
<path fill="none" stroke="midnightblue" d="M1376.5,-56.4C1376.5,-48.47 1376.5,-38.46 1376.5,-29.86"/>
<polygon fill="midnightblue" stroke="midnightblue" points="1380,-29.66 1376.5,-19.66 1373,-29.66 1380,-29.66"/>
</g>
</g>
</svg>
