<?xml version="1.0" encoding="UTF-8" standalone="no"?>
<!DOCTYPE svg PUBLIC "-//W3C//DTD SVG 1.1//EN"
 "http://www.w3.org/Graphics/SVG/1.1/DTD/svg11.dtd">
<!-- Generated by graphviz version 2.43.0 (0)
 -->
<!-- Title: video_display_impl.h Pages: 1 -->
<svg width="2534pt" height="218pt"
 viewBox="0.00 0.00 2534.00 218.00" xmlns="http://www.w3.org/2000/svg" xmlns:xlink="http://www.w3.org/1999/xlink">
<g id="graph0" class="graph" transform="scale(1 1) rotate(0) translate(4 214)">
<title>video_display_impl.h</title>
<polygon fill="white" stroke="transparent" points="-4,4 -4,-214 2530,-214 2530,4 -4,4"/>
<!-- Node1 -->
<g id="node1" class="node">
<title>Node1</title>
<g id="a_node1"><a xlink:title=" ">
<polygon fill="#bfbfbf" stroke="black" points="2094.5,-190.5 2094.5,-209.5 2214.5,-209.5 2214.5,-190.5 2094.5,-190.5"/>
<text text-anchor="middle" x="2154.5" y="-197.5" font-family="Helvetica,sans-Serif" font-size="10.00">video_display_impl.h</text>
</a>
</g>
</g>
<!-- Node2 -->
<g id="node2" class="node">
<title>Node2</title>
<g id="a_node2"><a xlink:href="video__player_8h.html" target="_top" xlink:title=" ">
<polygon fill="white" stroke="black" points="1003.5,-129 1003.5,-148 1091.5,-148 1091.5,-129 1003.5,-129"/>
<text text-anchor="middle" x="1047.5" y="-136" font-family="Helvetica,sans-Serif" font-size="10.00">video_player.h</text>
</a>
</g>
</g>
<!-- Node1&#45;&gt;Node2 -->
<g id="edge1" class="edge">
<title>Node1&#45;&gt;Node2</title>
<path fill="none" stroke="midnightblue" d="M2094.2,-195.76C1899.25,-185.28 1287.9,-152.42 1101.8,-142.42"/>
<polygon fill="midnightblue" stroke="midnightblue" points="1101.88,-138.92 1091.7,-141.88 1101.5,-145.91 1101.88,-138.92"/>
</g>
<!-- Node8 -->
<g id="node8" class="node">
<title>Node8</title>
<g id="a_node8"><a xlink:title=" ">
<polygon fill="white" stroke="#bfbfbf" points="0,-62 0,-81 73,-81 73,-62 0,-62"/>
<text text-anchor="middle" x="36.5" y="-69" font-family="Helvetica,sans-Serif" font-size="10.00">QByteArray</text>
</a>
</g>
</g>
<!-- Node1&#45;&gt;Node8 -->
<g id="edge28" class="edge">
<title>Node1&#45;&gt;Node8</title>
<path fill="none" stroke="midnightblue" d="M2094.39,-197.4C1922.69,-192.67 1415.31,-177.6 994.5,-154 588.27,-131.22 480.85,-164.83 81.5,-87 77.53,-86.23 73.43,-85.22 69.39,-84.09"/>
<polygon fill="midnightblue" stroke="midnightblue" points="70.16,-80.66 59.58,-81.1 68.13,-87.36 70.16,-80.66"/>
</g>
<!-- Node21 -->
<g id="node21" class="node">
<title>Node21</title>
<g id="a_node21"><a xlink:href="video__display_8h.html" target="_top" xlink:title=" ">
<polygon fill="white" stroke="black" points="1907.5,-123.5 1907.5,-153.5 2033.5,-153.5 2033.5,-123.5 1907.5,-123.5"/>
<text text-anchor="start" x="1915.5" y="-141.5" font-family="Helvetica,sans-Serif" font-size="10.00">gnuradio/videoDisplay</text>
<text text-anchor="middle" x="1970.5" y="-130.5" font-family="Helvetica,sans-Serif" font-size="10.00">/video_display.h</text>
</a>
</g>
</g>
<!-- Node1&#45;&gt;Node21 -->
<g id="edge20" class="edge">
<title>Node1&#45;&gt;Node21</title>
<path fill="none" stroke="midnightblue" d="M2128.14,-190.48C2101,-181.7 2057.98,-167.79 2023.73,-156.71"/>
<polygon fill="midnightblue" stroke="midnightblue" points="2024.46,-153.27 2013.87,-153.52 2022.3,-159.93 2024.46,-153.27"/>
</g>
<!-- Node25 -->
<g id="node25" class="node">
<title>Node25</title>
<g id="a_node25"><a xlink:title=" ">
<polygon fill="white" stroke="#bfbfbf" points="2129.5,-62 2129.5,-81 2215.5,-81 2215.5,-62 2129.5,-62"/>
<text text-anchor="middle" x="2172.5" y="-69" font-family="Helvetica,sans-Serif" font-size="10.00">qapplication.h</text>
</a>
</g>
</g>
<!-- Node1&#45;&gt;Node25 -->
<g id="edge27" class="edge">
<title>Node1&#45;&gt;Node25</title>
<path fill="none" stroke="midnightblue" d="M2127.57,-190.36C2110.78,-183.41 2090.52,-171.82 2080.5,-154 2073.75,-141.99 2073.48,-134.86 2080.5,-123 2091.46,-104.49 2111.87,-92.31 2130.69,-84.56"/>
<polygon fill="midnightblue" stroke="midnightblue" points="2131.94,-87.83 2140.04,-81 2129.45,-81.29 2131.94,-87.83"/>
</g>
<!-- Node27 -->
<g id="node27" class="node">
<title>Node27</title>
<g id="a_node27"><a xlink:title=" ">
<polygon fill="white" stroke="#bfbfbf" points="2089.5,-129 2089.5,-148 2219.5,-148 2219.5,-129 2089.5,-129"/>
<text text-anchor="middle" x="2154.5" y="-136" font-family="Helvetica,sans-Serif" font-size="10.00">QtCore/QTemporaryFile</text>
</a>
</g>
</g>
<!-- Node1&#45;&gt;Node27 -->
<g id="edge26" class="edge">
<title>Node1&#45;&gt;Node27</title>
<path fill="none" stroke="midnightblue" d="M2154.5,-190.48C2154.5,-182.08 2154.5,-168.98 2154.5,-158.16"/>
<polygon fill="midnightblue" stroke="midnightblue" points="2158,-158.01 2154.5,-148.01 2151,-158.01 2158,-158.01"/>
</g>
<!-- Node28 -->
<g id="node28" class="node">
<title>Node28</title>
<g id="a_node28"><a xlink:title=" ">
<polygon fill="white" stroke="#bfbfbf" points="2238,-129 2238,-148 2321,-148 2321,-129 2238,-129"/>
<text text-anchor="middle" x="2279.5" y="-136" font-family="Helvetica,sans-Serif" font-size="10.00">QDataStream</text>
</a>
</g>
</g>
<!-- Node1&#45;&gt;Node28 -->
<g id="edge29" class="edge">
<title>Node1&#45;&gt;Node28</title>
<path fill="none" stroke="midnightblue" d="M2172.41,-190.48C2193.39,-180.49 2228.35,-163.85 2252.59,-152.31"/>
<polygon fill="midnightblue" stroke="midnightblue" points="2254.1,-155.47 2261.62,-148.01 2251.09,-149.15 2254.1,-155.47"/>
</g>
<!-- Node29 -->
<g id="node29" class="node">
<title>Node29</title>
<g id="a_node29"><a xlink:title=" ">
<polygon fill="white" stroke="#bfbfbf" points="2339.5,-129 2339.5,-148 2385.5,-148 2385.5,-129 2339.5,-129"/>
<text text-anchor="middle" x="2362.5" y="-136" font-family="Helvetica,sans-Serif" font-size="10.00">cstdio</text>
</a>
</g>
</g>
<!-- Node1&#45;&gt;Node29 -->
<g id="edge30" class="edge">
<title>Node1&#45;&gt;Node29</title>
<path fill="none" stroke="midnightblue" d="M2195.37,-190.47C2231.19,-182.52 2284.43,-169.58 2329.5,-154 2331.36,-153.36 2333.27,-152.65 2335.17,-151.91"/>
<polygon fill="midnightblue" stroke="midnightblue" points="2336.66,-155.08 2344.56,-148.02 2333.98,-148.62 2336.66,-155.08"/>
</g>
<!-- Node30 -->
<g id="node30" class="node">
<title>Node30</title>
<g id="a_node30"><a xlink:title=" ">
<polygon fill="white" stroke="#bfbfbf" points="2404,-129 2404,-148 2453,-148 2453,-129 2404,-129"/>
<text text-anchor="middle" x="2428.5" y="-136" font-family="Helvetica,sans-Serif" font-size="10.00">cstdlib</text>
</a>
</g>
</g>
<!-- Node1&#45;&gt;Node30 -->
<g id="edge31" class="edge">
<title>Node1&#45;&gt;Node30</title>
<path fill="none" stroke="midnightblue" d="M2214.54,-191.45C2263.62,-184.39 2334.46,-172.2 2394.5,-154 2396.65,-153.35 2398.84,-152.61 2401.03,-151.81"/>
<polygon fill="midnightblue" stroke="midnightblue" points="2402.42,-155.02 2410.42,-148.07 2399.83,-148.52 2402.42,-155.02"/>
</g>
<!-- Node31 -->
<g id="node31" class="node">
<title>Node31</title>
<g id="a_node31"><a xlink:title=" ">
<polygon fill="white" stroke="#bfbfbf" points="2471,-129 2471,-148 2526,-148 2526,-129 2471,-129"/>
<text text-anchor="middle" x="2498.5" y="-136" font-family="Helvetica,sans-Serif" font-size="10.00">fstream</text>
</a>
</g>
</g>
<!-- Node1&#45;&gt;Node31 -->
<g id="edge32" class="edge">
<title>Node1&#45;&gt;Node31</title>
<path fill="none" stroke="midnightblue" d="M2214.74,-194.26C2277.24,-188.39 2377.42,-176.32 2461.5,-154 2464.16,-153.29 2466.89,-152.46 2469.6,-151.54"/>
<polygon fill="midnightblue" stroke="midnightblue" points="2471.01,-154.76 2479.19,-148.02 2468.6,-148.18 2471.01,-154.76"/>
</g>
<!-- Node3 -->
<g id="node3" class="node">
<title>Node3</title>
<g id="a_node3"><a xlink:title=" ">
<polygon fill="white" stroke="#bfbfbf" points="91,-56.5 91,-86.5 214,-86.5 214,-56.5 91,-56.5"/>
<text text-anchor="start" x="99" y="-74.5" font-family="Helvetica,sans-Serif" font-size="10.00">QtMultimediaWidgets</text>
<text text-anchor="middle" x="152.5" y="-63.5" font-family="Helvetica,sans-Serif" font-size="10.00">/QVideoWidget</text>
</a>
</g>
</g>
<!-- Node2&#45;&gt;Node3 -->
<g id="edge2" class="edge">
<title>Node2&#45;&gt;Node3</title>
<path fill="none" stroke="midnightblue" d="M1003.08,-136.96C880.55,-135.02 527.45,-126.29 224.67,-87.02"/>
<polygon fill="midnightblue" stroke="midnightblue" points="224.74,-83.5 214.37,-85.67 223.83,-90.44 224.74,-83.5"/>
</g>
<!-- Node4 -->
<g id="node4" class="node">
<title>Node4</title>
<g id="a_node4"><a xlink:title=" ">
<polygon fill="white" stroke="#bfbfbf" points="232.5,-62 232.5,-81 402.5,-81 402.5,-62 232.5,-62"/>
<text text-anchor="middle" x="317.5" y="-69" font-family="Helvetica,sans-Serif" font-size="10.00">QtNetwork/QNetworkDatagram</text>
</a>
</g>
</g>
<!-- Node2&#45;&gt;Node4 -->
<g id="edge3" class="edge">
<title>Node2&#45;&gt;Node4</title>
<path fill="none" stroke="midnightblue" d="M1003.44,-135.12C899.92,-129.3 633.19,-112.86 411.5,-87 400.7,-85.74 389.24,-84.17 378.17,-82.53"/>
<polygon fill="midnightblue" stroke="midnightblue" points="378.55,-79.05 368.14,-81.01 377.51,-85.97 378.55,-79.05"/>
</g>
<!-- Node5 -->
<g id="node5" class="node">
<title>Node5</title>
<g id="a_node5"><a xlink:title=" ">
<polygon fill="white" stroke="#bfbfbf" points="421,-62 421,-81 552,-81 552,-62 421,-62"/>
<text text-anchor="middle" x="486.5" y="-69" font-family="Helvetica,sans-Serif" font-size="10.00">QtNetwork/QUdpSocket</text>
</a>
</g>
</g>
<!-- Node2&#45;&gt;Node5 -->
<g id="edge4" class="edge">
<title>Node2&#45;&gt;Node5</title>
<path fill="none" stroke="midnightblue" d="M1003.35,-134.26C917.66,-127.68 722.96,-111.29 560.5,-87 552.76,-85.84 544.6,-84.44 536.64,-82.96"/>
<polygon fill="midnightblue" stroke="midnightblue" points="537.19,-79.5 526.71,-81.06 535.88,-86.38 537.19,-79.5"/>
</g>
<!-- Node6 -->
<g id="node6" class="node">
<title>Node6</title>
<g id="a_node6"><a xlink:title=" ">
<polygon fill="white" stroke="#bfbfbf" points="570,-62 570,-81 683,-81 683,-62 570,-62"/>
<text text-anchor="middle" x="626.5" y="-69" font-family="Helvetica,sans-Serif" font-size="10.00">QtWidgets/QWidget</text>
</a>
</g>
</g>
<!-- Node2&#45;&gt;Node6 -->
<g id="edge5" class="edge">
<title>Node2&#45;&gt;Node6</title>
<path fill="none" stroke="midnightblue" d="M1003.48,-132.38C936.05,-124.3 803.27,-107.36 691.5,-87 685.3,-85.87 678.8,-84.57 672.41,-83.21"/>
<polygon fill="midnightblue" stroke="midnightblue" points="673.01,-79.76 662.5,-81.06 671.53,-86.6 673.01,-79.76"/>
</g>
<!-- Node7 -->
<g id="node7" class="node">
<title>Node7</title>
<g id="a_node7"><a xlink:title=" ">
<polygon fill="white" stroke="#bfbfbf" points="701,-62 701,-81 754,-81 754,-62 701,-62"/>
<text text-anchor="middle" x="727.5" y="-69" font-family="Helvetica,sans-Serif" font-size="10.00">QBuffer</text>
</a>
</g>
</g>
<!-- Node2&#45;&gt;Node7 -->
<g id="edge6" class="edge">
<title>Node2&#45;&gt;Node7</title>
<path fill="none" stroke="midnightblue" d="M1003.37,-132.7C946.76,-125.86 845.95,-111.36 762.5,-87 760.21,-86.33 757.86,-85.56 755.53,-84.73"/>
<polygon fill="midnightblue" stroke="midnightblue" points="756.71,-81.44 746.12,-81.09 754.19,-87.96 756.71,-81.44"/>
</g>
<!-- Node2&#45;&gt;Node8 -->
<g id="edge7" class="edge">
<title>Node2&#45;&gt;Node8</title>
<path fill="none" stroke="midnightblue" d="M1003.29,-136.71C838.74,-133.53 262.05,-120.22 81.5,-87 77.32,-86.23 73,-85.18 68.75,-83.99"/>
<polygon fill="midnightblue" stroke="midnightblue" points="69.68,-80.62 59.1,-81.05 67.64,-87.31 69.68,-80.62"/>
</g>
<!-- Node9 -->
<g id="node9" class="node">
<title>Node9</title>
<g id="a_node9"><a xlink:title=" ">
<polygon fill="white" stroke="#bfbfbf" points="772,-62 772,-81 813,-81 813,-62 772,-62"/>
<text text-anchor="middle" x="792.5" y="-69" font-family="Helvetica,sans-Serif" font-size="10.00">QFile</text>
</a>
</g>
</g>
<!-- Node2&#45;&gt;Node9 -->
<g id="edge8" class="edge">
<title>Node2&#45;&gt;Node9</title>
<path fill="none" stroke="midnightblue" d="M1003.11,-130.64C957.12,-122.81 883.55,-108.29 822.5,-87 820.89,-86.44 819.24,-85.81 817.6,-85.14"/>
<polygon fill="midnightblue" stroke="midnightblue" points="818.96,-81.92 808.4,-81.02 816.1,-88.31 818.96,-81.92"/>
</g>
<!-- Node10 -->
<g id="node10" class="node">
<title>Node10</title>
<g id="a_node10"><a xlink:title=" ">
<polygon fill="white" stroke="#bfbfbf" points="831.5,-62 831.5,-81 881.5,-81 881.5,-62 831.5,-62"/>
<text text-anchor="middle" x="856.5" y="-69" font-family="Helvetica,sans-Serif" font-size="10.00">QLabel</text>
</a>
</g>
</g>
<!-- Node2&#45;&gt;Node10 -->
<g id="edge9" class="edge">
<title>Node2&#45;&gt;Node10</title>
<path fill="none" stroke="midnightblue" d="M1018.29,-128.98C986.55,-119.52 934.49,-103.42 890.5,-87 888.85,-86.38 887.16,-85.73 885.46,-85.06"/>
<polygon fill="midnightblue" stroke="midnightblue" points="886.37,-81.65 875.79,-81.09 883.72,-88.13 886.37,-81.65"/>
</g>
<!-- Node11 -->
<g id="node11" class="node">
<title>Node11</title>
<g id="a_node11"><a xlink:title=" ">
<polygon fill="white" stroke="#bfbfbf" points="900,-62 900,-81 987,-81 987,-62 900,-62"/>
<text text-anchor="middle" x="943.5" y="-69" font-family="Helvetica,sans-Serif" font-size="10.00">QMainWindow</text>
</a>
</g>
</g>
<!-- Node2&#45;&gt;Node11 -->
<g id="edge10" class="edge">
<title>Node2&#45;&gt;Node11</title>
<path fill="none" stroke="midnightblue" d="M1033.47,-128.73C1016.17,-117.92 986.51,-99.38 966.01,-86.57"/>
<polygon fill="midnightblue" stroke="midnightblue" points="967.64,-83.46 957.3,-81.13 963.93,-89.4 967.64,-83.46"/>
</g>
<!-- Node12 -->
<g id="node12" class="node">
<title>Node12</title>
<g id="a_node12"><a xlink:title=" ">
<polygon fill="white" stroke="#bfbfbf" points="1005,-62 1005,-81 1090,-81 1090,-62 1005,-62"/>
<text text-anchor="middle" x="1047.5" y="-69" font-family="Helvetica,sans-Serif" font-size="10.00">QMediaPlayer</text>
</a>
</g>
</g>
<!-- Node2&#45;&gt;Node12 -->
<g id="edge11" class="edge">
<title>Node2&#45;&gt;Node12</title>
<path fill="none" stroke="midnightblue" d="M1047.5,-128.73C1047.5,-119.18 1047.5,-103.62 1047.5,-91.28"/>
<polygon fill="midnightblue" stroke="midnightblue" points="1051,-91.13 1047.5,-81.13 1044,-91.13 1051,-91.13"/>
</g>
<!-- Node13 -->
<g id="node13" class="node">
<title>Node13</title>
<g id="a_node13"><a xlink:title=" ">
<polygon fill="white" stroke="#bfbfbf" points="1108.5,-62 1108.5,-81 1164.5,-81 1164.5,-62 1108.5,-62"/>
<text text-anchor="middle" x="1136.5" y="-69" font-family="Helvetica,sans-Serif" font-size="10.00">QObject</text>
</a>
</g>
</g>
<!-- Node2&#45;&gt;Node13 -->
<g id="edge12" class="edge">
<title>Node2&#45;&gt;Node13</title>
<path fill="none" stroke="midnightblue" d="M1059.5,-128.73C1074.05,-118.11 1098.78,-100.05 1116.28,-87.26"/>
<polygon fill="midnightblue" stroke="midnightblue" points="1118.68,-89.85 1124.69,-81.13 1114.55,-84.2 1118.68,-89.85"/>
</g>
<!-- Node14 -->
<g id="node14" class="node">
<title>Node14</title>
<g id="a_node14"><a xlink:title=" ">
<polygon fill="white" stroke="#bfbfbf" points="1182.5,-62 1182.5,-81 1262.5,-81 1262.5,-62 1182.5,-62"/>
<text text-anchor="middle" x="1222.5" y="-69" font-family="Helvetica,sans-Serif" font-size="10.00">QPushButton</text>
</a>
</g>
</g>
<!-- Node2&#45;&gt;Node14 -->
<g id="edge13" class="edge">
<title>Node2&#45;&gt;Node14</title>
<path fill="none" stroke="midnightblue" d="M1070.74,-128.87C1101.29,-117.52 1155.13,-97.52 1189.78,-84.65"/>
<polygon fill="midnightblue" stroke="midnightblue" points="1191.29,-87.83 1199.44,-81.06 1188.85,-81.26 1191.29,-87.83"/>
</g>
<!-- Node15 -->
<g id="node15" class="node">
<title>Node15</title>
<g id="a_node15"><a xlink:title=" ">
<polygon fill="white" stroke="#bfbfbf" points="1280.5,-62 1280.5,-81 1332.5,-81 1332.5,-62 1280.5,-62"/>
<text text-anchor="middle" x="1306.5" y="-69" font-family="Helvetica,sans-Serif" font-size="10.00">QSlider</text>
</a>
</g>
</g>
<!-- Node2&#45;&gt;Node15 -->
<g id="edge14" class="edge">
<title>Node2&#45;&gt;Node15</title>
<path fill="none" stroke="midnightblue" d="M1091.87,-129.82C1137.5,-121.38 1210.32,-106.41 1271.5,-87 1273.64,-86.32 1275.83,-85.57 1278.02,-84.77"/>
<polygon fill="midnightblue" stroke="midnightblue" points="1279.42,-87.98 1287.46,-81.08 1276.88,-81.46 1279.42,-87.98"/>
</g>
<!-- Node16 -->
<g id="node16" class="node">
<title>Node16</title>
<g id="a_node16"><a xlink:title=" ">
<polygon fill="white" stroke="#bfbfbf" points="1351,-62 1351,-81 1444,-81 1444,-62 1351,-62"/>
<text text-anchor="middle" x="1397.5" y="-69" font-family="Helvetica,sans-Serif" font-size="10.00">QTemporaryFile</text>
</a>
</g>
</g>
<!-- Node2&#45;&gt;Node16 -->
<g id="edge15" class="edge">
<title>Node2&#45;&gt;Node16</title>
<path fill="none" stroke="midnightblue" d="M1091.55,-131.1C1149.24,-122.46 1253.4,-105.94 1341.5,-87 1346.47,-85.93 1351.66,-84.72 1356.79,-83.46"/>
<polygon fill="midnightblue" stroke="midnightblue" points="1357.67,-86.85 1366.51,-81.02 1355.96,-80.06 1357.67,-86.85"/>
</g>
<!-- Node17 -->
<g id="node17" class="node">
<title>Node17</title>
<g id="a_node17"><a xlink:title=" ">
<polygon fill="white" stroke="#bfbfbf" points="1462.5,-62 1462.5,-81 1520.5,-81 1520.5,-62 1462.5,-62"/>
<text text-anchor="middle" x="1491.5" y="-69" font-family="Helvetica,sans-Serif" font-size="10.00">QThread</text>
</a>
</g>
</g>
<!-- Node2&#45;&gt;Node17 -->
<g id="edge16" class="edge">
<title>Node2&#45;&gt;Node17</title>
<path fill="none" stroke="midnightblue" d="M1091.55,-135.35C1166.6,-130.96 1323.62,-118.54 1452.5,-87 1455.49,-86.27 1458.57,-85.38 1461.62,-84.4"/>
<polygon fill="midnightblue" stroke="midnightblue" points="1462.84,-87.68 1471.13,-81.09 1460.54,-81.07 1462.84,-87.68"/>
</g>
<!-- Node18 -->
<g id="node18" class="node">
<title>Node18</title>
<g id="a_node18"><a xlink:title=" ">
<polygon fill="white" stroke="#bfbfbf" points="1539,-62 1539,-81 1588,-81 1588,-62 1539,-62"/>
<text text-anchor="middle" x="1563.5" y="-69" font-family="Helvetica,sans-Serif" font-size="10.00">QTime</text>
</a>
</g>
</g>
<!-- Node2&#45;&gt;Node18 -->
<g id="edge17" class="edge">
<title>Node2&#45;&gt;Node18</title>
<path fill="none" stroke="midnightblue" d="M1091.81,-137.24C1177.67,-135.79 1372.11,-127.82 1529.5,-87 1531.86,-86.39 1534.27,-85.64 1536.65,-84.81"/>
<polygon fill="midnightblue" stroke="midnightblue" points="1538.18,-87.97 1546.2,-81.05 1535.62,-81.45 1538.18,-87.97"/>
</g>
<!-- Node19 -->
<g id="node19" class="node">
<title>Node19</title>
<g id="a_node19"><a xlink:title=" ">
<polygon fill="white" stroke="#bfbfbf" points="1606.5,-62 1606.5,-81 1644.5,-81 1644.5,-62 1606.5,-62"/>
<text text-anchor="middle" x="1625.5" y="-69" font-family="Helvetica,sans-Serif" font-size="10.00">QUrl</text>
</a>
</g>
</g>
<!-- Node2&#45;&gt;Node19 -->
<g id="edge18" class="edge">
<title>Node2&#45;&gt;Node19</title>
<path fill="none" stroke="midnightblue" d="M1091.71,-135.55C1204.7,-130.22 1501.81,-113.99 1596.5,-87 1598.17,-86.52 1599.87,-85.95 1601.55,-85.31"/>
<polygon fill="midnightblue" stroke="midnightblue" points="1603.18,-88.41 1610.88,-81.13 1600.32,-82.03 1603.18,-88.41"/>
</g>
<!-- Node20 -->
<g id="node20" class="node">
<title>Node20</title>
<g id="a_node20"><a xlink:title=" ">
<polygon fill="white" stroke="#bfbfbf" points="1663,-62 1663,-81 1746,-81 1746,-62 1663,-62"/>
<text text-anchor="middle" x="1704.5" y="-69" font-family="Helvetica,sans-Serif" font-size="10.00">QVBoxLayout</text>
</a>
</g>
</g>
<!-- Node2&#45;&gt;Node20 -->
<g id="edge19" class="edge">
<title>Node2&#45;&gt;Node20</title>
<path fill="none" stroke="midnightblue" d="M1091.61,-136.75C1192.11,-134.39 1445.51,-124.86 1653.5,-87 1658.34,-86.12 1663.38,-84.97 1668.33,-83.71"/>
<polygon fill="midnightblue" stroke="midnightblue" points="1669.53,-87.01 1678.26,-81.01 1667.69,-80.26 1669.53,-87.01"/>
</g>
<!-- Node22 -->
<g id="node22" class="node">
<title>Node22</title>
<g id="a_node22"><a xlink:title=" ">
<polygon fill="white" stroke="#bfbfbf" points="1764,-62 1764,-81 1889,-81 1889,-62 1764,-62"/>
<text text-anchor="middle" x="1826.5" y="-69" font-family="Helvetica,sans-Serif" font-size="10.00">gnuradio/sync_block.h</text>
</a>
</g>
</g>
<!-- Node21&#45;&gt;Node22 -->
<g id="edge21" class="edge">
<title>Node21&#45;&gt;Node22</title>
<path fill="none" stroke="midnightblue" d="M1939.25,-123.4C1914.1,-112.04 1879.05,-96.22 1854.73,-85.24"/>
<polygon fill="midnightblue" stroke="midnightblue" points="1855.9,-81.93 1845.35,-81.01 1853.02,-88.31 1855.9,-81.93"/>
</g>
<!-- Node23 -->
<g id="node23" class="node">
<title>Node23</title>
<g id="a_node23"><a xlink:href="api_8h.html" target="_top" xlink:title=" ">
<polygon fill="white" stroke="black" points="1907.5,-56.5 1907.5,-86.5 2033.5,-86.5 2033.5,-56.5 1907.5,-56.5"/>
<text text-anchor="start" x="1915.5" y="-74.5" font-family="Helvetica,sans-Serif" font-size="10.00">gnuradio/videoDisplay</text>
<text text-anchor="middle" x="1970.5" y="-63.5" font-family="Helvetica,sans-Serif" font-size="10.00">/api.h</text>
</a>
</g>
</g>
<!-- Node21&#45;&gt;Node23 -->
<g id="edge22" class="edge">
<title>Node21&#45;&gt;Node23</title>
<path fill="none" stroke="midnightblue" d="M1970.5,-123.4C1970.5,-115.64 1970.5,-105.81 1970.5,-96.86"/>
<polygon fill="midnightblue" stroke="midnightblue" points="1974,-96.58 1970.5,-86.58 1967,-96.58 1974,-96.58"/>
</g>
<!-- Node21&#45;&gt;Node25 -->
<g id="edge24" class="edge">
<title>Node21&#45;&gt;Node25</title>
<path fill="none" stroke="midnightblue" d="M2014.33,-123.4C2050.87,-111.64 2102.3,-95.09 2136.48,-84.09"/>
<polygon fill="midnightblue" stroke="midnightblue" points="2137.62,-87.4 2146.06,-81.01 2135.47,-80.74 2137.62,-87.4"/>
</g>
<!-- Node26 -->
<g id="node26" class="node">
<title>Node26</title>
<g id="a_node26"><a xlink:title=" ">
<polygon fill="white" stroke="#bfbfbf" points="2052,-62 2052,-81 2111,-81 2111,-62 2052,-62"/>
<text text-anchor="middle" x="2081.5" y="-69" font-family="Helvetica,sans-Serif" font-size="10.00">QWidget</text>
</a>
</g>
</g>
<!-- Node21&#45;&gt;Node26 -->
<g id="edge25" class="edge">
<title>Node21&#45;&gt;Node26</title>
<path fill="none" stroke="midnightblue" d="M1994.59,-123.4C2013.46,-112.34 2039.56,-97.06 2058.22,-86.13"/>
<polygon fill="midnightblue" stroke="midnightblue" points="2060.11,-89.08 2066.97,-81.01 2056.57,-83.04 2060.11,-89.08"/>
</g>
<!-- Node24 -->
<g id="node24" class="node">
<title>Node24</title>
<g id="a_node24"><a xlink:title=" ">
<polygon fill="white" stroke="#bfbfbf" points="1911,-0.5 1911,-19.5 2030,-19.5 2030,-0.5 1911,-0.5"/>
<text text-anchor="middle" x="1970.5" y="-7.5" font-family="Helvetica,sans-Serif" font-size="10.00">gnuradio/attributes.h</text>
</a>
</g>
</g>
<!-- Node23&#45;&gt;Node24 -->
<g id="edge23" class="edge">
<title>Node23&#45;&gt;Node24</title>
<path fill="none" stroke="midnightblue" d="M1970.5,-56.4C1970.5,-48.47 1970.5,-38.46 1970.5,-29.86"/>
<polygon fill="midnightblue" stroke="midnightblue" points="1974,-29.66 1970.5,-19.66 1967,-29.66 1974,-29.66"/>
</g>
</g>
</svg>
